<svg id="Capa_1" data-name="Capa 1" xmlns="http://www.w3.org/2000/svg" viewBox="0 0 512 512">
  <defs>
    <style>
      .cls-1 {
        fill: #ffa300;
      }

      .cls-2 {
        fill: #ff8500;
      }

      .cls-3 {
        fill: #008cc3;
      }

      .cls-4 {
        fill: #0074a3;
      }

      .cls-5 {
        fill: #00baff;
      }

      .cls-6 {
        fill: #00131e;
      }

      .cls-7 {
        fill: #00263f;
      }

      .cls-8 {
        fill: #005c83;
      }
    </style>
  </defs>
  <circle class="cls-1" cx="256" cy="256" r="256"/>
  <path class="cls-2" d="M281.86,510.71C411.1,497.74,512,388.66,512,256c0-.44,0-.87,0-1.31l-90.25-90.25-122,126.06-164.07-166-47.44,20L173,229.09,154.92,376.85,186,407.36l-4,3.53Z" transform="translate(0 0)"/>
  <polygon class="cls-3" points="157.74 331.1 399.13 331.1 421.73 164.44 135.15 164.44 157.74 331.1"/>
  <polygon class="cls-4" points="421.73 164.44 255.86 164.44 255.86 331.1 399.13 331.1 421.73 164.44"/>
  <polygon class="cls-3" points="135.15 164.44 157.74 331.1 278.44 331.1 278.44 164.44 135.15 164.44"/>
  <polygon class="cls-5" points="167.38 189.35 182.32 306.04 207.59 306.04 196.58 189.35 167.38 189.35"/>
  <polygon class="cls-3" points="360.3 189.35 349.28 306.04 374.56 306.04 389.5 189.35 360.3 189.35"/>
  <polygon class="cls-5" points="230.21 189.35 237.3 306.04 260.17 306.04 256.63 189.35 230.21 189.35"/>
  <polygon class="cls-3" points="300.25 189.35 296.7 306.04 319.57 306.04 326.67 189.35 300.25 189.35"/>
  <circle class="cls-6" cx="356.65" cy="391.35" r="24.5"/>
  <circle class="cls-7" cx="196.81" cy="391.35" r="24.5"/>
  <polygon class="cls-8" points="395.94 376.85 154.92 376.85 118.57 144.5 88.25 144.5 88.25 124.5 135.69 124.5 172.03 356.85 395.94 356.85 395.94 376.85"/>
  <rect class="cls-7" x="278.44" y="356.85" width="117.5" height="20"/>
</svg>
