<svg id="svg10716" xmlns="http://www.w3.org/2000/svg" xmlns:xlink="http://www.w3.org/1999/xlink" viewBox="0 0 162.46 691.18"><defs><style>.cls-1{fill:#6e6e6e;}.cls-2{fill:url(#Dégradé_sans_nom);}.cls-3{fill:url(#Dégradé_sans_nom_2);}.cls-4{opacity:0.39;}.cls-11,.cls-15,.cls-17,.cls-18,.cls-19,.cls-20,.cls-5{fill:none;}.cls-5{stroke:#6d6868;}.cls-11,.cls-5{stroke-width:0.75px;}.cls-6,.cls-8{fill:#bcbcbc;}.cls-6{opacity:0.26;}.cls-16,.cls-6{isolation:isolate;}.cls-16,.cls-7{opacity:0.54;}.cls-9{fill:url(#Dégradé_sans_nom_3);}.cls-10{fill:url(#Dégradé_sans_nom_4);}.cls-11,.cls-15{stroke:#afafaf;}.cls-12{fill:url(#Dégradé_sans_nom_5);}.cls-13{fill:url(#Dégradé_sans_nom_6);}.cls-14{fill:url(#Dégradé_sans_nom_7);}.cls-15{stroke-width:0.5px;}.cls-16{fill:url(#Dégradé_sans_nom_8);}.cls-17{stroke:#000;}.cls-17,.cls-18,.cls-19,.cls-20{stroke-linecap:round;stroke-linejoin:round;}.cls-17,.cls-18,.cls-19{stroke-width:10px;}.cls-18{stroke:#9b0d0d;}.cls-19,.cls-20{stroke:#556b2f;}.cls-20{stroke-width:10px;}</style><radialGradient id="Dégradé_sans_nom" cx="81.86" cy="6.11" r="11.44" gradientTransform="matrix(-1, 0, 0, 1, 162.46, 429.29)" gradientUnits="userSpaceOnUse"><stop offset="0" stop-color="#cfcfcf"/><stop offset="1" stop-color="#a8a8a8"/></radialGradient><radialGradient id="Dégradé_sans_nom_2" cx="81.23" cy="159.05" r="92.67" gradientTransform="matrix(-1, 0, 0, 1, 162.46, 0.87)" gradientUnits="userSpaceOnUse"><stop offset="0" stop-color="#fff"/><stop offset="1" stop-color="#cdcdcd"/></radialGradient><radialGradient id="Dégradé_sans_nom_3" cx="81.23" cy="51.53" r="20.9" gradientTransform="matrix(-1, 0, 0, 1, 162.46, 0.87)" gradientUnits="userSpaceOnUse"><stop offset="0" stop-color="#fff"/><stop offset="1" stop-color="#818181"/></radialGradient><radialGradient id="Dégradé_sans_nom_4" cx="80.59" cy="42.33" r="21.21" gradientTransform="matrix(-1, 0, 0, 1, 162.46, 429.29)" gradientUnits="userSpaceOnUse"><stop offset="0.33" stop-color="#fff"/><stop offset="1" stop-color="#a1a1a1"/></radialGradient><radialGradient id="Dégradé_sans_nom_5" cx="80.59" cy="33.45" r="21.21" xlink:href="#Dégradé_sans_nom_4"/><radialGradient id="Dégradé_sans_nom_6" cx="80.59" cy="24.56" r="21.21" xlink:href="#Dégradé_sans_nom_4"/><radialGradient id="Dégradé_sans_nom_7" cx="80.59" cy="15.68" r="21.21" xlink:href="#Dégradé_sans_nom_4"/><radialGradient id="Dégradé_sans_nom_8" cx="151.69" cy="190" r="24.96" gradientTransform="matrix(-1, -0.06, -0.06, 1, 179.08, -7.24)" xlink:href="#Dégradé_sans_nom"/></defs><g id="Layer_1" data-name="Layer 1"><rect id="rect10104" class="cls-1" x="71.08" y="428.42" width="19.04" height="6.35"/><rect id="rect10111" class="cls-2" x="64.73" y="432.23" width="31.73" height="6.35"/><path id="path10118" class="cls-3" d="M0,191.16c0,39.54,36.37,71.6,81.23,71.6s81.23-32.06,81.23-71.6c0-15.63-5.74-30-15.38-41.8-1.14-1.61-33.27-47.06-36-66.24-2.77-19.53-2.77-24.73-2.77-24.73L93,57.87l0-.79-11.81.4-11.8-.4,0,.79-15.3.52s0,5.2-2.77,24.73c-2.73,19.18-34.86,64.63-36,66.24C5.74,161.12,0,175.53,0,191.16Z" transform="translate(0 428.42)"/><g id="g10120" class="cls-4"><line id="line10122" class="cls-5" x1="82.5" y1="597.23" x2="87.58" y2="483"/><line id="line10124" class="cls-5" x1="78.69" y1="597.23" x2="76.16" y2="483"/></g><g id="g10133"><path id="path10135" class="cls-6" d="M81.23,262.76l.44-3.28-2.1-15.8c.73-.13,1.38-.29,2.1-.43-94.75-18.45-42.32-89.67-42.32-89.67l30.08-96.5L54.15,58.39c7.2,21.57-30,81.23-30,81.23C-48.23,248.76,81.23,262.76,81.23,262.76Z" transform="translate(0 428.42)"/><path id="path10137" class="cls-6" d="M81.67,259.48l.44,3.28s129.46-14,57.11-123.15c0,0-37.23-59.65-30-81.22L93.91,57.08,124,153.58s52.43,71.22-42.32,89.67c.72.14,1.37.3,2.1.43Z" transform="translate(0 428.42)"/><path id="path10139" class="cls-6" d="M81.67,259.48l2.1-15.8c-.73-.13-1.38-.29-2.1-.43-.72.14-1.37.3-2.1.43Z" transform="translate(0 428.42)"/><path id="path10141" class="cls-6" d="M81.67,259.48l2.1-15.8c-.73-.13-1.38-.29-2.1-.43-.72.14-1.37.3-2.1.43Z" transform="translate(0 428.42)"/></g><g id="g10143" class="cls-7"><path id="path10145" class="cls-8" d="M117.76,250s57.35-43.39,32.67-87C130.21,122.65,170.11,201.81,117.76,250Z" transform="translate(0 428.42)"/></g><g id="g10147"><g id="g10149"><path id="path10156" class="cls-9" d="M52.68,52.4a7.61,7.61,0,0,1,7.61-7.61h41.88a7.62,7.62,0,1,1,0,15.23H60.29A7.62,7.62,0,0,1,52.68,52.4Z" transform="translate(0 428.42)"/><line id="line10158" class="cls-5" x1="52.68" y1="487.17" x2="109.79" y2="487.17"/></g><g id="g10160"><g id="g10162"><g id="g10164"><rect id="rect10171" class="cls-10" x="52.04" y="468.44" width="59.65" height="6.35"/><line id="line10173" class="cls-11" x1="107.89" y1="466.54" x2="54.58" y2="466.54"/></g><g id="g10175"><rect id="rect10182" class="cls-12" x="52.04" y="459.56" width="59.65" height="6.35"/><line id="line10184" class="cls-11" x1="107.89" y1="457.66" x2="54.58" y2="457.66"/></g></g><g id="g10186"><g id="g10188"><rect id="rect10195" class="cls-13" x="52.04" y="450.67" width="59.65" height="6.35"/><line id="line10197" class="cls-11" x1="107.89" y1="448.78" x2="54.58" y2="448.78"/></g><g id="g10199"><rect id="rect10206" class="cls-14" x="52.04" y="441.79" width="59.65" height="6.35"/><line id="line10208" class="cls-11" x1="107.89" y1="439.89" x2="54.58" y2="439.89"/></g></g></g></g><path id="path10210" class="cls-15" d="M91.47,161.46c-4.59-7.05-12-7.05-16.6,0-3.67,5.63-3.67,14.77,0,20.41,2.93,4.5,7.69,4.5,10.62,0a13,13,0,0,0,0-13.06c-1.88-2.89-4.92-2.89-6.8,0" transform="translate(0 428.42)"/><path id="path10217" class="cls-16" d="M9.5,207.78S-.81,165.25,27.31,140.15C27.31,140.15,8.59,201.37,9.5,207.78Z" transform="translate(0 428.42)"/></g><g id="layer1"><g id="g24829"><g id="layer1-2" data-name="layer1"><path id="path2987" class="cls-17" d="M75.6-423.42c-34.08,120.33,27.72,145.77-1.75,262.91" transform="translate(0 428.42)"/><path class="cls-18" d="M124.91,34.88" transform="translate(0 428.42)"/><path class="cls-17" d="M53.82,56.7C55,59.51,56.25,68.21,66.61,74a36.34,36.34,0,0,0,22.81,4.06c4.55-.58,15.23-1.94,22-10.94,3.73-5,.89-10.22,1.21-13.1" transform="translate(0 428.42)"/><path class="cls-17" d="M57.58,8.47C54.37-5.69,71.77-47.78,80.76-31.86c5.17,9.15,16.81,30.39,22,40.33" transform="translate(0 428.42)"/><path id="path2991" class="cls-19" d="M57.68-143.08c16.59-2,14.67-6,29.35-13.84" transform="translate(0 428.42)"/><g id="use3767"><path id="path2991-2" data-name="path2991" class="cls-19" d="M57.68-128.07c16.59-2,14.67-6,29.35-13.84" transform="translate(0 428.42)"/></g><g id="use3791"><path id="path2991-3" data-name="path2991" class="cls-19" d="M57.68-113.06c16.59-2,14.67-6,29.35-13.84" transform="translate(0 428.42)"/></g><g id="use3793"><path id="path2991-4" data-name="path2991" class="cls-19" d="M57.68-98c16.59-2,14.67-6,29.35-13.84" transform="translate(0 428.42)"/></g><g id="use3795"><path id="path2991-5" data-name="path2991" class="cls-19" d="M57.68-83C74.27-85,72.35-89,87-96.87" transform="translate(0 428.42)"/></g><g id="use3797"><path id="path2991-6" data-name="path2991" class="cls-19" d="M57.68-68C74.27-70,72.35-74,87-81.86" transform="translate(0 428.42)"/></g><g id="use3799"><path id="path2991-7" data-name="path2991" class="cls-19" d="M57.68-53C74.27-55,72.35-59,87-66.85" transform="translate(0 428.42)"/></g><g id="use3801"><path id="path2991-8" data-name="path2991" class="cls-19" d="M57.68-38C74.27-40,72.35-44,87-51.84" transform="translate(0 428.42)"/></g><g id="use3803"><path id="path2991-9" data-name="path2991" class="cls-20" d="M46.61-183.75c4.19,16.17,7.9,13.73,17.67,27.21" transform="translate(0 428.42)"/></g></g></g></g></svg>